<?xml version="1.0" standalone="no"?>
<!DOCTYPE svg PUBLIC "-//W3C//DTD SVG 20010904//EN"
 "http://www.w3.org/TR/2001/REC-SVG-20010904/DTD/svg10.dtd">
<svg version="1.0" xmlns="http://www.w3.org/2000/svg"
 width="187.000000pt" height="244.000000pt" viewBox="0 0 187.000000 244.000000"
 preserveAspectRatio="xMidYMid meet">

<g transform="translate(0.000000,244.000000) scale(0.100000,-0.100000)"
fill="#000000" stroke="none">
<path d="M1574 1988 l-101 -189 -43 66 c-23 37 -45 63 -50 59 -4 -5 -48 -64
-98 -131 -90 -121 -90 -122 -96 -89 -11 58 -68 96 -143 96 -59 0 -332 -36
-388 -51 -52 -14 -87 -43 -119 -99 -14 -25 -26 -38 -26 -29 0 24 -37 67 -72
85 -26 14 -46 14 -144 5 -62 -6 -121 -14 -131 -17 -16 -5 -15 -4 2 10 11 9 25
14 33 11 7 -2 10 0 7 5 -4 6 8 10 27 11 31 1 94 16 73 18 -5 0 -55 -6 -111
-13 -106 -14 -141 -29 -174 -76 -24 -33 -26 -118 -6 -165 l14 -30 -3 37 c-3
28 0 36 11 31 13 -5 15 -10 18 -45 1 -7 4 -15 8 -18 3 -3 17 -37 31 -75 195
-540 187 -526 337 -554 107 -20 102 -12 67 -96 l-31 -75 -37 67 -38 68 -11
-30 c-6 -17 -36 -100 -66 -185 -31 -85 -73 -204 -95 -264 -21 -60 -37 -111
-35 -113 2 -3 48 75 101 172 54 96 101 178 106 180 4 3 24 -24 45 -61 20 -36
40 -62 44 -57 4 4 49 64 101 132 l94 124 6 -36 c7 -44 20 -60 63 -81 48 -23
82 -21 414 25 163 22 318 42 344 42 25 1 44 5 42 9 -3 4 3 5 12 1 11 -4 15 -2
11 4 -8 13 12 22 32 15 10 -3 8 -10 -10 -24 -18 -14 -19 -17 -4 -10 37 19 80
71 68 83 -8 8 -11 6 -10 -7 1 -13 -4 -18 -16 -17 -13 1 -17 -4 -12 -15 5 -13
3 -14 -6 -5 -13 13 -3 36 13 27 6 -4 8 -2 5 4 -9 13 2 44 13 37 4 -3 8 5 8 18
0 12 16 67 36 121 36 97 37 116 14 163 -9 18 -6 26 20 50 21 20 41 58 66 129
46 130 47 163 3 201 -28 25 -61 35 -227 72 -107 24 -199 47 -204 52 -5 4 -1
26 9 51 9 24 21 54 27 68 9 23 11 21 48 -45 22 -39 40 -67 40 -64 0 3 45 140
101 303 55 164 99 299 97 301 -2 2 -49 -82 -104 -187z m-537 -315 c-3 -10 -79
-182 -170 -383 -102 -224 -172 -366 -182 -370 -22 -8 -314 25 -325 36 -5 5
-39 90 -75 189 -36 99 -86 233 -110 299 -25 65 -42 122 -39 127 3 5 0 9 -7 9
-8 0 -9 3 -3 9 10 11 155 31 221 31 50 0 46 5 114 -160 26 -63 51 -116 56
-117 4 -1 34 61 66 140 32 78 62 149 67 157 9 15 226 46 339 49 46 1 53 -1 48
-16z m463 -259 c124 -15 228 -30 232 -33 4 -4 -10 -51 -31 -106 -45 -115 -51
-120 -158 -109 -48 4 -73 3 -73 -4 0 -6 28 -35 61 -66 100 -90 98 -80 49 -211
-23 -63 -47 -119 -54 -124 -17 -15 -674 -87 -685 -76 -10 10 98 257 123 283 8
8 58 15 139 19 70 3 127 9 127 12 0 3 -43 40 -95 81 -52 41 -97 83 -100 92 -6
16 75 201 112 257 17 27 -20 29 353 -15z"/>
<path d="M815 1619 c-44 -4 -89 -11 -101 -13 -17 -5 -39 -48 -104 -206 -46
-112 -87 -199 -94 -197 -6 2 -43 84 -82 182 -39 97 -77 181 -85 185 -21 12
-160 -1 -165 -15 -6 -14 192 -534 210 -553 13 -13 217 -36 246 -27 11 3 64
111 153 313 74 169 137 314 139 322 4 18 -16 20 -117 9z"/>
<path d="M1197 1384 c-14 -15 -87 -176 -87 -193 0 -9 50 -58 110 -109 61 -51
110 -99 110 -106 0 -27 -27 -34 -160 -40 -74 -4 -141 -11 -150 -16 -21 -11
-85 -159 -74 -170 5 -5 44 -5 89 0 44 5 163 16 264 25 102 9 190 20 197 26 18
15 76 164 72 186 -2 11 -45 56 -95 102 -51 46 -93 89 -93 97 0 25 34 31 133
25 54 -3 104 -3 111 1 17 10 59 113 54 130 -3 9 -48 17 -144 25 -251 22 -329
25 -337 17z"/>
<path d="M368 1753 c7 -3 16 -2 19 1 4 3 -2 6 -13 5 -11 0 -14 -3 -6 -6z"/>
<path d="M30 1450 c0 -6 5 -8 11 -4 7 4 9 0 5 -12 -3 -11 -2 -25 3 -33 6 -9 8
-3 7 19 -1 30 -26 58 -26 30z"/>
<path d="M1741 1004 c0 -11 3 -14 6 -6 3 7 2 16 -1 19 -3 4 -6 -2 -5 -13z"/>
<path d="M1701 870 c0 -33 1 -34 10 -11 6 16 6 28 -1 35 -7 7 -10 -1 -9 -24z"/>
<path d="M1671 815 c1 -11 1 -27 0 -35 -1 -13 -2 -13 -11 0 -11 18 -12 3 -1
-24 7 -18 9 -16 19 13 8 23 9 38 2 50 -9 14 -10 14 -9 -4z"/>
<path d="M1514 642 c3 -5 0 -13 -6 -15 -8 -3 -6 -6 5 -6 19 -1 23 14 5 25 -6
4 -8 3 -4 -4z"/>
<path d="M1448 613 c7 -3 16 -2 19 1 4 3 -2 6 -13 5 -11 0 -14 -3 -6 -6z"/>
</g>
</svg>
